<svg xmlns="http://www.w3.org/2000/svg"  viewBox="0 0 100 100" width="100px" height="100px"><path fill="#a0d2a1" d="M69.4,19H31.6C24.653,19,19,24.653,19,31.6v37.8C19,76.347,24.653,82,31.6,82h37.8 C76.347,82,82,76.347,82,69.4V31.6C82,24.652,76.347,19,69.4,19z"/><path fill="#e9d5c6" d="M41,48h-6c-0.552,0-1-0.448-1-1v-5h7V48z"/><path fill="#e9d5c6" d="M58,42h6v3.165C64,46.731,62.731,48,61.165,48H58V42z"/><rect width="6" height="2" x="51" y="29" fill="#e9d5c6"/><rect width="4" height="3" x="53" y="31" fill="#e9d5c6"/><rect width="4" height="4" x="50" y="38" fill="#f05b6c"/><rect width="4" height="5" x="50" y="34" fill="#e9d5c6"/><rect width="8" height="8" x="47" y="41" fill="#e9d5c6"/><path fill="#e9d5c6" d="M51,52H37c-0.552,0-1-0.448-1-1v-7h15V52z"/><path fill="#f05b6c" d="M55,41c-0.552,0-1,0.448-1,1v7c0-0.552-0.448-1-1-1h-2c-0.552,0-1,0.448-1,1v5c0,0.552,0.448,1,1,1 h2c0.552,0,1-0.448,1-1v-1c0-0.552,0.448-1,1-1h2c0.552,0,1-0.448,1-1v-9c0-0.552-0.448-1-1-1H55z"/><path fill="#8cc78c" d="M71,69h-2c0-1.657-1.343-3-3-3H38c-1.657,0-2,2.343-2,4h-2c-1.105,0-2,0.895-2,2v1 c0,1.104,0.895,2,2,2h2v1c0,1.657,1.343,3,3,3h27c1.657,0,3-1.343,3-3v-1h2c1.105,0,2-0.896,2-2v-2C73,69.895,72.105,69,71,69z"/><rect width="10" height="3" x="54" y="39" fill="#fdfcee"/><rect width="7" height="3" x="34" y="39" fill="#fdfcee"/><path fill="#fdfcee" d="M57,25v-2c0-0.552-0.448-1-1-1h-9v2h-3c-0.552,0-0.604,0.61-0.604,1.162L43.425,36H46v3h5v-3v-4v-3 h6h2c0.552,0,1-0.448,1-1v-2c0-0.552-0.448-1-1-1H57z"/><path fill="#fdfcee" d="M58,57v-3H43v8h4v4h5v-4h2v5h7v-9c0-0.552-0.448-1-1-1H58z"/><path fill="#fdfcee" d="M51,76h-7c-0.552,0-1-0.448-1-1v-4h9v4C52,75.552,51.552,76,51,76z"/><path fill="#fdfcee" d="M64,76h-9c-0.552,0-1-0.448-1-1v-3c0-0.552,0.448-1,1-1h9c0.552,0,1,0.448,1,1v3 C65,75.552,64.552,76,64,76z"/><path fill="#f49073" d="M50,38h-3v-1c0-1.105-0.895-2-2-2h-6c-1.105,0-2,0.895-2,2v2h3v2v1v2c0,0.552,0.448,1,1,1h6 c0.552,0,1-0.448,1-1v-2h2V38z"/><rect width="2" height="2" x="48" y="26" fill="#f49073"/><path fill="#f49073" d="M45,61h-1v-6h6v-4H40v2v2v5c0,1.105,0.895,2,2,2h1v10h3h1h5v-6h-5v-3C47,61.895,46.105,61,45,61z"/><rect width="7" height="6" x="54" y="66" fill="#f49073"/><path fill="#f49073" d="M57,48v3h-3c-0.552,0-1,0.448-1,1v3h5v-3h2c0.552,0,1-0.448,1-1v-3H57z"/><path fill="#212121" d="M70.021,18.003h-39c-7.168,0-13,5.832-13,13v39c0,7.168,5.832,13,13,13h39c7.168,0,13-5.832,13-13 v-39C83.021,23.834,77.189,18.003,70.021,18.003z M81.021,70.003c0,6.065-4.935,11-11,11h-39c-6.065,0-11-4.935-11-11v-39 c0-6.065,4.935-11,11-11h39c6.065,0,11,4.935,11,11V70.003z"/><path fill="#212121" d="M72.5,69H69v-2.5c0-0.276-0.224-0.5-0.5-0.5H61v-8.5c0-0.276-0.224-0.5-0.5-0.5H58v-5h2.5 c0.276,0,0.5-0.224,0.5-0.5V48h2.5c0.276,0,0.5-0.224,0.5-0.5v-9c0-0.276-0.224-0.5-0.5-0.5H61v-3.5c0-0.276-0.224-0.5-0.5-0.5H58 v-5h1.5c0.276,0,0.5-0.224,0.5-0.5v-3c0-0.276-0.224-0.5-0.5-0.5H57v-2.5c0-0.276-0.224-0.5-0.5-0.5h-10 c-0.276,0-0.5,0.224-0.5,0.5V24h-2.453c-0.276,0-0.5,0.224-0.5,0.5V35H37.5c-0.276,0-0.5,0.224-0.5,0.5V38h-2.5 c-0.276,0-0.5,0.224-0.5,0.5v9c0,0.276,0.224,0.5,0.5,0.5H36v3.5c0,0.276,0.224,0.5,0.5,0.5H40v9.5c0,0.276,0.224,0.5,0.5,0.5H43v4 h-6.5c-0.276,0-0.5,0.224-0.5,0.5V70h-3.5c-0.276,0-0.5,0.224-0.5,0.5v4c0,0.276,0.224,0.5,0.5,0.5H36v3.5 c0,0.276,0.224,0.5,0.5,0.5h17c0.276,0,0.5-0.224,0.5-0.5S53.776,78,53.5,78H37v-3.5c0-0.276-0.224-0.5-0.5-0.5H33v-3h3.5 c0.276,0,0.5-0.224,0.5-0.5V67h6v8.5c0,0.276,0.224,0.5,0.5,0.5h8c0.276,0,0.5-0.224,0.5-0.5V62h2v13.5c0,0.276,0.224,0.5,0.5,0.5 h10c0.276,0,0.5-0.224,0.5-0.5v-4c0-0.276-0.224-0.5-0.5-0.5h-2h-0.002H61v-4h7v2.5c0,0.276,0.224,0.5,0.5,0.5H72v4h-3.5 c-0.276,0-0.5,0.224-0.5,0.5V78h-3.5c-0.276,0-0.5,0.224-0.5,0.5s0.224,0.5,0.5,0.5h4c0.276,0,0.5-0.224,0.5-0.5V75h3.5 c0.276,0,0.5-0.224,0.5-0.5v-5C73,69.224,72.776,69,72.5,69z M51,54v-2.5V49h3.5c0.276,0,0.5-0.224,0.5-0.5V42h2v9h-3.5 c-0.276,0-0.5,0.224-0.5,0.5V54H51z M53,34h-2v-2h2V34z M50,28h-2v-2h2V28z M51,35h2v3h-2V35z M54,39v2h-3v-2H54z M54,52h3v2h-3V52 z M63,47h-2.5c-0.276,0-0.5,0.224-0.5,0.5V51h-2v-9.008L60.499,42H60.5c0.275,0,0.499-0.223,0.5-0.498 c0.001-0.276-0.222-0.501-0.499-0.502l-3-0.01H57.5c-0.017,0-0.032,0.008-0.049,0.01H55v-2h8V47z M60,38h-6v-3h6V38z M57,34h-3 v-2.5c0-0.276-0.224-0.5-0.5-0.5H51v-2h6V34z M44.047,25H46.5c0.276,0,0.5-0.224,0.5-0.5V23h9v2.5c0,0.276,0.224,0.5,0.5,0.5H59v2 h-8v-2.5c0-0.276-0.224-0.5-0.5-0.5h-3c-0.276,0-0.5,0.224-0.5,0.5v3c0,0.276,0.224,0.5,0.5,0.5H50v2.5v3V38h-3v-2.5 c0-0.276-0.224-0.5-0.5-0.5h-2.453V25z M38,36h8v2.5c0,0.276,0.224,0.5,0.5,0.5H50v2h-2.5c-0.276,0-0.5,0.224-0.5,0.5V44h-6v-5.5 c0-0.276-0.224-0.5-0.5-0.5H38V36z M40,39v3h-5v-3H40z M41,61v-9h6.368c0.276,0,0.5-0.224,0.5-0.5s-0.224-0.5-0.5-0.5H37v-3.5 c0-0.276-0.224-0.5-0.5-0.5H35v-4h5v1.5c0,0.276,0.224,0.5,0.5,0.5h7c0.276,0,0.5-0.224,0.5-0.5V42h6v6h-3.5 c-0.276,0-0.5,0.224-0.5,0.5v3V54h-6.5c-0.276,0-0.5,0.224-0.5,0.5V61H41z M46.5,67H51v4h-7v-9h2v4.5C46,66.776,46.224,67,46.5,67z M44,75v-3h7v3H44z M51.5,61c-0.276,0-0.5,0.224-0.5,0.5V66h-4v-4.5c0-0.276-0.224-0.5-0.5-0.5H44v-6h13v2.5 c0,0.276,0.224,0.5,0.5,0.5H60v8h-5v-4.5c0-0.276-0.224-0.5-0.5-0.5H51.5z M64,75h-9v-2.961L62.502,72H64V75z M55,71.039V67h5 v4.013L55,71.039z"/><path fill="#212121" d="M61.5,78h-5c-0.276,0-0.5,0.224-0.5,0.5s0.224,0.5,0.5,0.5h5c0.276,0,0.5-0.224,0.5-0.5 S61.776,78,61.5,78z"/><rect width="2" height="2" x="51" y="32" fill="#b1b0c1"/><rect width="6" height="3" x="54" y="35" fill="#b1b0c1"/></svg>